<?xml version="1.0" encoding="UTF-8"?>
<svg xmlns="http://www.w3.org/2000/svg" xmlns:xlink="http://www.w3.org/1999/xlink" width="40pt" height="10pt" viewBox="0 0 40 10" version="1.1">
<g id="surface1">
<path style=" stroke:none;fill-rule:nonzero;fill:rgb(100%,100%,100%);fill-opacity:1;" d="M 10 5 C 10 7.761719 7.761719 10 5 10 C 2.238281 10 0 7.761719 0 5 C 0 2.238281 2.238281 0 5 0 C 7.761719 0 10 2.238281 10 5 Z M 10 5 "/>
<path style=" stroke:none;fill-rule:nonzero;fill:rgb(100%,100%,100%);fill-opacity:0.301961;" d="M 23 5 C 23 6.65625 21.65625 8 20 8 C 18.34375 8 17 6.65625 17 5 C 17 3.34375 18.34375 2 20 2 C 21.65625 2 23 3.34375 23 5 Z M 23 5 "/>
<path style=" stroke:none;fill-rule:nonzero;fill:rgb(100%,100%,100%);fill-opacity:1;" d="M 40 5 C 40 7.761719 37.761719 10 35 10 C 32.238281 10 30 7.761719 30 5 C 30 2.238281 32.238281 0 35 0 C 37.761719 0 40 2.238281 40 5 Z M 40 5 "/>
</g>
</svg>
